<svg width="32" height="32" viewBox="0 0 32 32" fill="none" xmlns="http://www.w3.org/2000/svg">
<rect width="32" height="32" fill="white"/>
<path d="M30.6782 8.96015L17.7493 0.514087C16.6841 -0.175358 15.3116 -0.168309 14.2527 0.528891L1.31048 8.9672C0.506827 9.49662 0.284767 10.5773 0.813483 11.381C1.3429 12.1846 2.42289 12.4074 3.22725 11.8772L16.013 3.54046L28.7833 11.8843C29.0765 12.0739 29.4043 12.1635 29.7286 12.1635C30.301 12.1635 30.8594 11.8836 31.1928 11.369C31.7159 10.5611 31.4846 9.48393 30.6782 8.96015Z" fill="#7A7A7A"/>
<path d="M27.4079 19.4681C27.3014 18.8583 26.7713 18.4072 26.1531 18.4072H25.4425L25.1725 15.5965C24.8842 12.5906 22.3893 10.3164 19.3693 10.3164H12.6328C9.61203 10.3164 7.1179 12.5913 6.82887 15.5965L6.55957 18.4072H5.84827C5.22932 18.4072 4.6999 18.8583 4.59205 19.4681L3.53461 25.4631C3.40349 26.2061 3.61357 26.971 4.09858 27.5476C4.56526 28.1031 5.25259 28.4344 5.97164 28.4591V29.4545C5.97164 30.8637 7.10098 31.9994 8.51159 31.9994H9.31383C10.723 31.9994 11.8693 30.8637 11.8693 29.4545V28.4753H20.1398V29.4524C20.1398 30.8623 21.2769 31.9994 22.6861 31.9994H23.4891C24.8983 31.9994 26.0368 30.8623 26.0368 29.4524V28.4591C26.7558 28.4344 27.4389 28.1059 27.9042 27.5511C28.3892 26.9731 28.5964 26.2124 28.4667 25.468L27.4079 19.4681ZM8.20705 26.1631C7.01779 26.1631 6.05342 25.1994 6.05342 24.0087C6.05342 22.8181 7.01779 21.8537 8.20705 21.8537C9.39702 21.8537 10.3621 22.8174 10.3621 24.0087C10.3621 25.1994 9.39702 26.1631 8.20705 26.1631ZM8.74423 18.4072L8.99308 15.8143C9.17425 13.9293 10.7385 12.5095 12.6328 12.5095H13.0212V13.3244C13.0212 14.0315 13.583 14.5948 14.2894 14.5948H17.7127C18.419 14.5948 18.9907 14.0315 18.9907 13.3244V12.5102H19.3693C21.2635 12.5102 22.8278 13.93 23.0083 15.8151L23.2578 18.4079L8.74423 18.4072ZM23.7922 26.1631C22.6029 26.1631 21.6385 25.1994 21.6385 24.0087C21.6385 22.8181 22.6029 21.8537 23.7922 21.8537C24.9821 21.8537 25.9472 22.8174 25.9472 24.0087C25.9472 25.1994 24.9821 26.1631 23.7922 26.1631Z" fill="#00793A"/>
</svg>
