<svg viewBox="0 0 28 28" xmlns="http://www.w3.org/2000/svg">
<path fill-rule="evenodd" clip-rule="evenodd" d="M12 28C5.37258 28 0 22.6274 0 16V12C0 5.37258 5.37258 0 12 0H16C22.6274 0 28 5.37258 28 12V16C28 22.6274 22.6274 28 16 28H12ZM10.4188 6H17.5812C18.7537 6.00185 19.8777 6.46834 20.7062 7.29706C21.5347 8.12578 22 9.24898 22 10.42V17.5869C21.9982 18.7568 21.532 19.8782 20.7037 20.7054C19.8754 21.5326 18.7525 21.9982 17.5812 22H10.4188C9.24746 21.9982 8.12458 21.5326 7.29629 20.7054C6.46799 19.8782 6.00185 18.7568 6 17.5869V10.42C6 9.24898 6.46533 8.12578 7.29383 7.29706C8.12232 6.46834 9.24626 6.00185 10.4188 6ZM19.7012 19.7022C20.264 19.1415 20.581 18.3808 20.5829 17.5869V10.42C20.581 9.62554 20.2642 8.8641 19.7017 8.3023C19.1391 7.74049 18.3767 7.42406 17.5812 7.42222H10.4188C9.6233 7.42406 8.86087 7.74049 8.29833 8.3023C7.73579 8.8641 7.41895 9.62554 7.4171 10.42V17.5869C7.41895 18.3808 7.73602 19.1415 8.29876 19.7022C8.8615 20.2629 9.62394 20.5778 10.4188 20.5778H17.5812C18.3761 20.5778 19.1385 20.2629 19.7012 19.7022ZM14.0068 10C13.2153 9.99867 12.4413 10.2321 11.7826 10.6708C11.124 11.1096 10.6102 11.7338 10.3064 12.4646C10.0026 13.1954 9.92246 13.9998 10.076 14.7762C10.2296 15.5526 10.61 16.2659 11.1692 16.826C11.7283 17.3861 12.441 17.7678 13.2172 17.9226C13.9933 18.0775 14.7979 17.9987 15.5292 17.6962C16.2605 17.3936 16.8856 16.8809 17.3254 16.223C17.7652 15.565 18 14.7914 18 14C18 12.9403 17.5795 11.9239 16.8308 11.174C16.0821 10.424 15.0665 10.0018 14.0068 10ZM14.0068 16.6149C13.488 16.6149 12.9808 16.4609 12.5496 16.1726C12.1183 15.8842 11.7823 15.4744 11.5841 14.9949C11.3858 14.5155 11.3343 13.988 11.436 13.4793C11.5377 12.9706 11.7881 12.5035 12.1554 12.1371C12.5227 11.7707 12.9905 11.5216 13.4995 11.4212C14.0084 11.3208 14.5358 11.3737 15.0147 11.5731C15.4936 11.7726 15.9026 12.1097 16.1898 12.5417C16.4771 12.9737 16.6297 13.4812 16.6284 14C16.6266 14.6941 16.3496 15.3592 15.8581 15.8494C15.3667 16.3396 14.7009 16.6149 14.0068 16.6149ZM17.2938 9.29289C17.4819 9.10536 17.7371 9 18.0031 9C18.2693 9.00554 18.5232 9.11296 18.712 9.3C18.8967 9.48918 19 9.74271 19 10.0067C19 10.2706 18.8967 10.5242 18.712 10.7133C18.521 10.8955 18.2675 10.998 18.0031 11C17.7371 11 17.4819 10.8946 17.2938 10.7071C17.1057 10.5196 17 10.2652 17 10C17 9.73478 17.1057 9.48043 17.2938 9.29289Z"/>
</svg>
