<svg viewBox="0 0 19 19" xmlns="http://www.w3.org/2000/svg">
<path d="M18.9596 14.7215C18.9058 14.5596 18.5639 14.3211 17.9341 14.0065C17.7634 13.9073 17.5203 13.7726 17.2057 13.6016C16.8909 13.4307 16.6051 13.2731 16.3488 13.1292C16.0921 12.9852 15.8516 12.8458 15.6268 12.7111C15.5909 12.6841 15.4785 12.6055 15.2896 12.4747C15.1005 12.3444 14.941 12.2476 14.8103 12.1845C14.6799 12.1218 14.5516 12.0903 14.4257 12.0903C14.2458 12.0903 14.0211 12.2185 13.7513 12.4747C13.4815 12.7313 13.2341 13.01 13.0093 13.3116C12.7844 13.6131 12.546 13.8918 12.2943 14.1482C12.0423 14.4047 11.8353 14.5328 11.6735 14.5328C11.5923 14.5328 11.4911 14.5102 11.3698 14.4655C11.2485 14.4206 11.1562 14.382 11.0929 14.351C11.0301 14.3193 10.9224 14.2565 10.7694 14.1617C10.6161 14.0673 10.5308 14.0155 10.5128 14.0065C9.28042 13.3226 8.22346 12.5399 7.34175 11.6586C6.46033 10.7767 5.67754 9.71987 4.99387 8.48732C4.98489 8.46932 4.93304 8.38382 4.83866 8.23096C4.74413 8.07797 4.68112 7.97016 4.64965 7.90702C4.61817 7.84411 4.57993 7.75185 4.53503 7.63043C4.49013 7.50901 4.46759 7.40786 4.46759 7.32681C4.46759 7.16497 4.59581 6.95796 4.85222 6.70604C5.10858 6.45427 5.38753 6.21577 5.68879 5.99103C5.99029 5.76629 6.26896 5.51882 6.52541 5.24904C6.78177 4.97911 6.90995 4.75433 6.90995 4.57444C6.90995 4.44858 6.87847 4.32025 6.81556 4.18985C6.75261 4.05917 6.65591 3.8997 6.52541 3.71069C6.39487 3.52178 6.31617 3.40943 6.28914 3.37327C6.15434 3.14853 6.01505 2.90791 5.87095 2.65151C5.72684 2.39515 5.56954 2.10939 5.39854 1.79456C5.22768 1.47988 5.09284 1.2369 4.99378 1.06599C4.67909 0.436388 4.44074 0.094386 4.27877 0.0405997C4.21576 0.013612 4.12124 0 3.99542 0C3.75239 0 3.43534 0.0449007 3.04404 0.134986C2.6526 0.224929 2.34459 0.319268 2.11966 0.41838C1.66985 0.6072 1.19309 1.15593 0.689261 2.06439C0.23047 2.90985 0.00109863 3.74666 0.00109863 4.5742C0.00109863 4.8169 0.0168375 5.05303 0.0483153 5.28264C0.0797931 5.51201 0.136037 5.77069 0.217095 6.05862C0.298011 6.34646 0.363282 6.56028 0.412626 6.69952C0.462016 6.83885 0.554228 7.08845 0.689214 7.44842C0.824011 7.80828 0.905068 8.02858 0.932056 8.10954C1.24688 8.9912 1.62022 9.77829 2.05197 10.471C2.76235 11.6225 3.73178 12.8124 4.9597 14.0405C6.18766 15.2684 7.37739 16.2378 8.52893 16.9484C9.22158 17.3801 10.009 17.7534 10.8905 18.0685C10.9715 18.0953 11.1918 18.1762 11.5515 18.3115C11.9114 18.4464 12.1611 18.5386 12.3004 18.588C12.4398 18.6376 12.6537 18.7029 12.9413 18.784C13.2295 18.865 13.4879 18.9213 13.7173 18.953C13.9468 18.984 14.183 19 14.4257 19C15.2532 19 16.0901 18.7705 16.9357 18.3118C17.844 17.8081 18.3926 17.3313 18.5815 16.8812C18.6809 16.6565 18.775 16.3484 18.8649 15.9569C18.9552 15.5657 19 15.2487 19 15.0057C19.0002 14.8793 18.9867 14.7851 18.9596 14.7215Z"/>
</svg>
