<svg viewBox="0 0 56 76" xmlns="http://www.w3.org/2000/svg">
<circle cx="28.5" cy="70.5" r="2.5" fill="#E81717"/>
<path d="M33 70.5C33 72.9853 30.9853 75 28.5 75C26.0147 75 24 72.9853 24 70.5C24 68.0147 26.0147 66 28.5 66C30.9853 66 33 68.0147 33 70.5ZM25.9905 70.5C25.9905 71.886 27.114 73.0095 28.5 73.0095C29.886 73.0095 31.0095 71.886 31.0095 70.5C31.0095 69.114 29.886 67.9905 28.5 67.9905C27.114 67.9905 25.9905 69.114 25.9905 70.5Z" fill="white"/>
<circle cx="28" cy="28" r="27" fill="#E81717"/>
<path d="M29.4403 62.0903L27.4403 62.0903C27.4403 62.0903 27.4825 59.5684 26.9402 58.0907C26.3561 56.499 24.5 54.5 24.5 54.5L32.5 54.5C32.5 54.5 30.5477 56.4793 29.9402 58.0907C29.385 59.5636 29.4403 62.0903 29.4403 62.0903Z" fill="#E81717"/>
<rect x="19" y="26" width="18" height="6" fill="white"/>
<rect x="25" y="20" width="6" height="19" fill="white"/>
</svg>
