<svg viewBox="0 0 17 23" xmlns="http://www.w3.org/2000/svg">
<path d="M13.9207 2.24605C12.4234 0.748527 10.6164 0 8.50013 0C6.38372 0 4.57692 0.748684 3.07955 2.24605C1.58223 3.74337 0.833496 5.55023 0.833496 7.66663C0.833496 8.75486 0.998181 9.64819 1.3275 10.347L6.79302 21.9371C6.94281 22.2663 7.175 22.5258 7.48942 22.7153C7.80389 22.905 8.14076 23 8.50023 23C8.8596 23 9.19663 22.905 9.51105 22.7153C9.82552 22.5258 10.0624 22.2663 10.2222 21.9371L15.6724 10.347C16.0019 9.64819 16.1667 8.75481 16.1667 7.66663C16.1669 5.55023 15.4183 3.74358 13.9207 2.24605ZM11.2103 10.3769C10.4617 11.1255 9.55836 11.4999 8.50013 11.4999C7.4419 11.4999 6.53855 11.1255 5.78976 10.3769C5.04108 9.62816 4.66665 8.72481 4.66665 7.66658C4.66665 6.60846 5.04108 5.70495 5.78976 4.95637C6.53855 4.20768 7.44206 3.83326 8.50013 3.83326C9.55836 3.83326 10.4617 4.20768 11.2103 4.95637C11.9589 5.7049 12.3333 6.60846 12.3333 7.66658C12.3333 8.7247 11.959 9.628 11.2103 10.3769Z"/>
</svg>
