<svg viewBox="0 0 28 28" xmlns="http://www.w3.org/2000/svg">
<path fill-rule="evenodd" clip-rule="evenodd" d="M12 28C5.37258 28 0 22.6274 0 16V12C0 5.37258 5.37258 0 12 0H16C22.6274 0 28 5.37258 28 12V16C28 22.6274 22.6274 28 16 28H12ZM21.2867 5.04758C22.9597 6.55346 23.8872 9.88283 23.2607 15.1565C22.7125 19.8093 19.5757 20.6334 18.5228 20.91C18.4196 20.9372 18.3363 20.959 18.2776 20.9787C17.9932 21.0732 15.4907 21.7207 12.2322 21.4381L11.9079 21.8258C10.2493 23.81 9.96354 24.1519 9.37357 23.9607C8.82582 23.7883 8.85819 22.9308 8.85819 22.9308L8.86257 20.8142H8.85819C4.09732 19.4282 4.16382 14.3191 4.21982 11.5917C4.27582 8.86521 4.78682 6.66283 6.23757 5.16221C9.46807 2.09446 18.5873 2.47508 21.2876 5.04671L21.2867 5.04758ZM9.84957 23.1881C10.4909 22.5205 12.5533 19.9488 12.5533 19.9488C15.3166 20.1335 17.5172 19.5673 17.7543 19.4886C17.8096 19.4702 17.8893 19.451 17.9885 19.427C18.8852 19.2105 21.3771 18.6088 21.8379 14.7688C21.8375 14.7498 21.8442 14.6823 21.855 14.5735L21.855 14.5733L21.855 14.5732C21.9646 13.4688 22.4955 8.12101 20.2288 6.11158C18.1918 4.19708 10.1969 3.60296 7.36282 6.26033C6.13432 7.51596 5.71782 9.38058 5.67407 11.6573C5.67257 11.7355 5.67083 11.8162 5.66905 11.8991C5.61901 14.2285 5.53103 18.3235 9.42869 19.4405C9.42869 19.4405 9.41294 22.6718 9.41294 22.9545C9.40944 23.385 9.63957 23.4051 9.84957 23.1881ZM13.6943 6.75977C13.3574 6.75977 13.3574 7.28477 13.6943 7.28914C16.3079 7.30927 18.4604 9.13102 18.4841 12.4726C18.4841 12.8253 19.0003 12.8209 18.9959 12.4683H18.9951C18.9671 8.86764 16.6168 6.77989 13.6943 6.75977ZM17.6441 11.9312C17.6397 12.2838 17.1243 12.2672 17.1322 11.9189C17.1724 10.1803 16.1216 8.81878 14.1266 8.66741C13.7906 8.64291 13.8256 8.11353 14.1624 8.13803C16.4628 8.31041 17.6869 9.94578 17.6441 11.9312ZM16.5811 14.1773C16.1488 13.9271 15.7087 14.0828 15.5267 14.3287L15.1461 14.8213C14.9527 15.0716 14.5913 15.0383 14.5913 15.0383C11.9541 14.341 11.2488 11.5812 11.2488 11.5812C11.2488 11.5812 11.2164 11.2076 11.4579 11.0072L11.9339 10.6135C12.1719 10.4245 12.3224 9.96947 12.0801 9.52234C11.5918 8.64024 11.2245 8.19392 10.9784 7.89493L10.9784 7.89492C10.8981 7.79738 10.8308 7.71553 10.7763 7.63934C10.5436 7.34797 10.1936 7.28234 9.82956 7.47922H9.82169C9.06481 7.92197 8.23619 8.75059 8.50131 9.60372C8.57975 9.75969 8.66959 9.97483 8.77832 10.2352C9.29664 11.4766 10.2444 13.7463 12.4344 15.5371C13.6796 16.5617 15.6501 17.6117 16.4866 17.8541L16.4944 17.8663C17.3187 18.1411 18.1202 17.2801 18.5481 16.5005V16.4943C18.7379 16.1172 18.6749 15.7602 18.3976 15.5266C17.9058 15.0471 17.1638 14.5177 16.5811 14.1773ZM15.8153 11.4813C15.7716 10.5792 15.3638 10.14 14.5229 10.091C14.1826 10.0708 14.2141 9.54147 14.5509 9.56159C15.6569 9.62284 16.2712 10.2791 16.3272 11.4568C16.3429 11.8095 15.8311 11.834 15.8153 11.4813Z"/>
</svg>
