<svg viewBox="0 0 28 28" xmlns="http://www.w3.org/2000/svg">
<path fill-rule="evenodd" clip-rule="evenodd" d="M12 28C5.37258 28 0 22.6274 0 16V12C0 5.37258 5.37258 0 12 0H16C22.6274 0 28 5.37258 28 12V16C28 22.6274 22.6274 28 16 28H12ZM14.1355 5.6001C16.3997 5.60103 18.525 6.47832 20.1231 8.07062C21.7213 9.66281 22.6009 11.7792 22.6 14.0302C22.5982 18.6749 18.8007 22.454 14.1356 22.454H14.1321C12.7155 22.4536 11.3236 22.0999 10.0872 21.4286L5.59998 22.6001L6.80083 18.2349C6.06007 16.9574 5.67035 15.5081 5.67098 14.0234C5.67285 9.37892 9.46995 5.6001 14.1355 5.6001ZM14.1326 21.0314H14.1355C18.0133 21.0314 21.1692 17.8903 21.1709 14.0296C21.1715 12.1588 20.4405 10.3996 19.1122 9.07615C17.784 7.7527 16.0175 7.02347 14.1383 7.02285C10.2577 7.02285 7.10161 10.1636 7.10015 14.0239C7.09953 15.3469 7.47142 16.6354 8.17569 17.7502L8.34302 18.0151L7.63229 20.5988L10.2951 19.9036L10.5518 20.0554C11.6322 20.6932 12.8702 21.0308 14.1326 21.0314ZM16.5493 15.1026C16.7432 15.173 17.7831 15.682 17.9946 15.7874C18.0361 15.8081 18.0749 15.8268 18.1108 15.8441C18.258 15.9149 18.3574 15.9627 18.3998 16.0332C18.4528 16.1211 18.4528 16.5425 18.2766 17.0342C18.1002 17.5258 17.2554 17.9746 16.849 18.0351C16.4845 18.0892 16.0235 18.1119 15.5169 17.9517C15.2096 17.8546 14.8157 17.7253 14.3111 17.5082C12.3285 16.6563 10.9885 14.7438 10.7352 14.3823C10.7175 14.3569 10.705 14.3392 10.6981 14.33L10.6962 14.3275C10.5837 14.178 9.83455 13.1827 9.83455 12.1526C9.83455 11.1831 10.3129 10.675 10.5332 10.4411C10.5483 10.425 10.5622 10.4102 10.5747 10.3967C10.7686 10.1859 10.9978 10.1333 11.1387 10.1333C11.2798 10.1333 11.4208 10.1345 11.5441 10.1406C11.5592 10.1414 11.575 10.1413 11.5913 10.1412C11.7146 10.1405 11.8683 10.1396 12.02 10.5019C12.0779 10.6405 12.1626 10.8456 12.2519 11.0621C12.4343 11.5042 12.6365 11.9942 12.6719 12.0648C12.7249 12.1702 12.7603 12.2931 12.6897 12.4336C12.6192 12.574 12.3899 12.8706 12.161 13.1536C12.1512 13.1657 12.1411 13.1776 12.131 13.1896C12.0443 13.2921 11.9578 13.3943 12.0682 13.5832C12.1916 13.7938 12.6161 14.4831 13.2447 15.0412C13.9208 15.6413 14.5084 15.8949 14.8061 16.0234C14.8641 16.0485 14.9111 16.0688 14.9456 16.086C15.1572 16.1914 15.2804 16.1737 15.4038 16.0332C15.5273 15.8929 15.9325 15.4187 16.0736 15.208C16.2144 14.9974 16.3556 15.0324 16.5493 15.1026Z"/>
</svg>
